<svg viewBox="0 0 997 1032" fill="none" xmlns="http://www.w3.org/2000/svg">
<path d="M277.077 599.417L316.737 679.787C323.107 692.677 335.407 701.617 349.637 703.697L438.317 716.577C474.157 721.787 488.467 765.827 462.537 791.107L398.367 853.657C388.067 863.697 383.377 878.157 385.797 892.337L400.947 980.667C407.067 1016.36 369.597 1043.58 337.547 1026.73L258.227 985.027C245.497 978.337 230.297 978.337 217.557 985.027L138.237 1026.73C106.177 1043.59 68.7174 1016.36 74.8374 980.667L89.9874 892.337C92.4174 878.167 87.7174 863.707 77.4174 853.657L13.2474 791.107C-12.6926 765.827 1.61739 721.777 37.4674 716.577L126.147 703.697C140.377 701.627 152.677 692.697 159.047 679.787L198.707 599.417C214.727 566.947 261.047 566.947 277.067 599.417H277.077Z" fill="white"/>
<path d="M489.768 58.1677L977.648 843.808C1013.51 901.558 995.768 977.438 938.028 1013.3C880.288 1049.16 804.398 1031.42 768.538 973.668L280.658 188.028C244.798 130.278 262.538 54.3977 320.278 18.5377C378.018 -17.3223 453.908 0.417671 489.768 58.1677Z" fill="white"/>
</svg>
