<svg viewBox="0 0 278 51" fill="none" xmlns="http://www.w3.org/2000/svg">
<path d="M76.0584 22.0376H74.9514C72.4723 22.0376 70.3009 21.7899 68.4377 21.2953C66.5736 20.8008 65.1214 20.1869 64.0811 19.4543C63.0403 18.7221 62.198 17.8513 61.5552 16.8424C60.9115 15.834 60.4954 14.9014 60.3061 14.0451C60.1169 13.1888 60.0225 12.2943 60.0225 11.3617V10.5339C60.0225 9.58248 60.1122 8.68803 60.2923 7.85057C60.4718 7.0136 60.874 6.095 61.4987 5.09575C62.123 4.0965 62.9505 3.2402 63.982 2.52638C65.0131 1.81256 66.47 1.2132 68.353 0.727826C70.2356 0.242448 72.4352 0 74.9519 0H76.0588C77.8183 0 79.4316 0.113979 80.8982 0.342421C82.3643 0.570863 83.5943 0.865953 84.5879 1.22721C85.5811 1.58895 86.4613 2.02217 87.2276 2.5259C87.994 3.0306 88.5942 3.53916 89.0297 4.05303C89.4647 4.5669 89.8197 5.1141 90.0941 5.69462C90.3681 6.27514 90.5481 6.79385 90.6333 7.25025C90.7184 7.70713 90.761 8.15435 90.761 8.59192V8.96284H82.3883C81.7446 6.79336 79.427 5.70863 75.4345 5.70863C70.7229 5.70863 68.3674 7.36423 68.3674 10.6754V11.0178C68.3674 11.6457 68.4761 12.2455 68.6936 12.8164C68.9111 13.3873 69.2707 13.949 69.7724 14.5005C70.2736 15.0525 71.0113 15.4901 71.9863 15.8137C72.9605 16.1373 74.1193 16.2991 75.4632 16.2991C76.6364 16.2991 77.6675 16.1899 78.5569 15.9706C79.4459 15.7519 80.1179 15.5094 80.5719 15.2428C81.0259 14.9767 81.4044 14.6435 81.7071 14.2436C82.0098 13.8437 82.1898 13.5582 82.2462 13.3873C82.3032 13.2158 82.3596 13.026 82.4166 12.8164H90.761V13.2733C90.761 13.9205 90.6661 14.5821 90.4773 15.2573C90.288 15.933 89.8715 16.6946 89.2283 17.5408C88.585 18.3879 87.7566 19.1302 86.745 19.7672C85.7324 20.4052 84.3042 20.9427 82.4591 21.3803C80.614 21.8179 78.4806 22.0367 76.0588 22.0367L76.0584 22.0376Z" fill="white"/>
<path d="M93.457 0H101.518V15.7282H116.163V22.0371H93.457V0Z" fill="white"/>
<path d="M141.083 22.0376L139.437 18.483H127.374L125.756 22.0376H117.582L128.027 0H138.869L149.91 22.0376H141.083ZM136.854 12.9738L133.306 5.39084L129.843 12.9738H136.854H136.854Z" fill="white"/>
<path d="M165.152 22.0376H162.569C153.979 22.0376 149.684 19.5223 149.684 14.4918V14.2059H158.539C158.69 16.2068 160.45 17.207 163.818 17.207H164.073C165.152 17.207 166.05 17.1549 166.77 17.0501C167.488 16.9457 168.019 16.7926 168.359 16.5927C168.699 16.3927 168.931 16.1831 169.054 15.9639C169.177 15.7451 169.239 15.4925 169.239 15.2066V15.1781C169.239 14.7777 169.139 14.459 168.941 14.2204C168.742 13.9823 168.269 13.7727 167.522 13.5916C166.774 13.4104 165.691 13.3013 164.272 13.2627L160.355 13.1482C153.448 12.9579 149.995 10.8237 149.995 6.74555V6.48813C149.995 5.74485 150.099 5.07305 150.307 4.47321C150.515 3.87288 150.894 3.28705 151.443 2.71522C151.991 2.14339 152.71 1.66767 153.6 1.28613C154.489 0.905074 155.657 0.595494 157.105 0.357393C158.552 0.119292 160.231 0 162.143 0H164.669C173.221 0 177.497 2.2395 177.497 6.71706V6.9455H168.727C168.557 5.44058 166.854 4.68764 163.618 4.68764H163.335C162.01 4.68764 160.988 4.76878 160.269 4.93057C159.55 5.09285 159.105 5.27348 158.935 5.47343C158.765 5.67337 158.68 5.93562 158.68 6.25969V6.28818C158.68 6.61225 158.779 6.87885 158.978 7.08846C159.176 7.29854 159.626 7.484 160.326 7.64579C161.025 7.80807 162.01 7.89838 163.277 7.91722L167.081 8.00319C171.073 8.11765 173.93 8.67499 175.652 9.67521C177.374 10.6754 178.235 12.2528 178.235 14.4058V14.8062C178.235 15.5876 178.14 16.2976 177.951 16.9356C177.762 17.5741 177.383 18.2217 176.816 18.879C176.248 19.5364 175.496 20.0893 174.56 20.5371C173.623 20.9852 172.355 21.347 170.756 21.6232C169.157 21.899 167.289 22.0376 165.151 22.0376H165.152Z" fill="white"/>
<path d="M180.818 22.0376V0H188.879V7.7902H202.077V0H210.109V22.0376H202.077V13.6553H188.879V22.0376H180.818Z" fill="white"/>
<path d="M82.4156 50.0147L80.7695 46.4601H68.7071L67.0892 50.0147H58.915L69.3601 27.9771H80.2022L91.2432 50.0147H82.4161H82.4156ZM78.1867 40.9509L74.639 33.3679L71.1765 40.9509H78.1872H78.1867Z" fill="white"/>
<path d="M97.0054 50.0147V33.9899H87.8945V27.9771H114.177V33.9899H105.066V50.0147H97.0054Z" fill="white"/>
<path d="M117.042 27.977H125.103V43.7052H139.748V50.0142H117.042V27.9766V27.977Z" fill="white"/>
<path d="M164.669 50.0147L163.022 46.4601H150.96L149.342 50.0147H141.168L151.613 27.9771H162.455L173.496 50.0147H164.669H164.669ZM160.44 40.9509L156.892 33.3679L153.429 40.9509H160.44H160.44Z" fill="white"/>
<path d="M175.171 27.9771H184.197L196.458 40.5066V27.9771H204.462V50.0147H196.401L183.175 36.6559V50.0147H175.171V27.9771Z" fill="white"/>
<path d="M216.41 50.0147V33.9899H207.299V27.9771H233.581V33.9899H224.47V50.0147H216.41Z" fill="white"/>
<path d="M244.48 27.9771V50.0147H236.448V27.9771H244.48Z" fill="white"/>
<path d="M263.298 50.0147H262.191C259.712 50.0147 257.54 49.7669 255.677 49.2724C253.813 48.7778 252.361 48.164 251.32 47.4313C250.28 46.6991 249.437 45.8283 248.794 44.8194C248.151 43.811 247.735 42.8784 247.545 42.0221C247.356 41.1658 247.262 40.2714 247.262 39.3388V38.511C247.262 37.5595 247.351 36.6651 247.532 35.8276C247.711 34.9906 248.113 34.072 248.738 33.0728C249.362 32.0735 250.19 31.2173 251.221 30.5034C252.252 29.7896 253.709 29.1903 255.592 28.7049C257.475 28.2195 259.674 27.9771 262.191 27.9771H263.298C265.058 27.9771 266.671 28.091 268.137 28.3195C269.604 28.5479 270.834 28.843 271.827 29.2043C272.82 29.566 273.701 29.9992 274.467 30.503C275.233 31.0076 275.834 31.5162 276.269 32.0301C276.704 32.544 277.059 33.0912 277.333 33.6717C277.607 34.2522 277.787 34.7709 277.873 35.2273C277.958 35.6842 278 36.1314 278 36.569V36.9399H269.628C268.984 34.7704 266.666 33.6857 262.674 33.6857C257.962 33.6857 255.607 35.3413 255.607 38.6525V38.9949C255.607 39.6227 255.715 40.2226 255.933 40.7935C256.15 41.3643 256.51 41.926 257.012 42.4775C257.513 43.0296 258.251 43.4671 259.226 43.7907C260.2 44.1143 261.359 44.2761 262.702 44.2761C263.876 44.2761 264.907 44.167 265.796 43.9477C266.685 43.7289 267.357 43.4865 267.811 43.2199C268.265 42.9537 268.644 42.6205 268.946 42.2206C269.249 41.8207 269.429 41.5353 269.485 41.3643C269.542 41.1929 269.599 41.0031 269.656 40.7935H278V41.2503C278 41.8975 277.905 42.5592 277.717 43.2344C277.527 43.91 277.111 44.6716 276.468 45.5178C275.824 46.3649 274.996 47.1072 273.984 47.7443C272.972 48.3823 271.543 48.9198 269.698 49.3574C267.853 49.7949 265.72 50.0137 263.298 50.0137L263.298 50.0147Z" fill="white"/>
<path d="M225.858 3.34238L225.858 3.34253C226.182 3.5737 226.43 3.82339 226.583 4.09622C226.733 4.36389 226.808 4.65424 226.808 4.96304V5.13256C226.808 5.44082 226.733 5.73418 226.585 6.00821L226.585 6.00854C226.433 6.28784 226.19 6.54573 225.871 6.78555L225.871 6.78567C225.529 7.04277 225.035 7.23234 224.414 7.36895L224.414 7.36896C223.784 7.5072 223.044 7.57473 222.195 7.57473C221.345 7.57473 220.603 7.50522 219.974 7.36284L225.858 3.34238ZM225.858 3.34238C225.512 3.09621 225.021 2.9131 224.405 2.78095C223.781 2.64726 223.044 2.58172 222.195 2.58172C221.346 2.58172 220.576 2.64714 219.953 2.78096L219.953 2.78099M225.858 3.34238L219.953 2.78099M219.953 2.78099C219.337 2.91351 218.847 3.09622 218.506 3.34354C218.187 3.57475 217.944 3.82538 217.797 4.10014C217.653 4.36734 217.582 4.65681 217.582 4.96304V5.10841C217.582 5.41719 217.657 5.71006 217.805 5.98406C217.956 6.26298 218.199 6.52253 218.517 6.7663L218.517 6.76645M219.953 2.78099L218.517 6.76645M218.517 6.76645C218.858 7.02788 219.352 7.22217 219.974 7.36283L218.517 6.76645ZM230.973 5.98079L230.972 5.98123C230.93 6.20231 230.837 6.46073 230.688 6.75847C230.545 7.04576 230.356 7.31162 230.12 7.55664C229.89 7.79624 229.559 8.04332 229.121 8.2939L229.121 8.294C228.69 8.54139 228.187 8.75269 227.612 8.92539L227.612 8.92543C227.039 9.09781 226.322 9.23898 225.456 9.34657L225.456 9.34658C224.593 9.45422 223.63 9.50839 222.565 9.50839H221.841C220.776 9.50839 219.812 9.45421 218.95 9.34659L218.95 9.34658C218.083 9.23849 217.363 9.09776 216.784 8.92526C216.204 8.75197 215.699 8.54113 215.268 8.294C214.829 8.04279 214.499 7.79617 214.269 7.55664C214.033 7.31171 213.844 7.04535 213.7 6.75833C213.551 6.46118 213.459 6.20282 213.416 5.98132L213.416 5.98123C213.371 5.74778 213.349 5.50141 213.349 5.24123V4.87804C213.349 4.61832 213.371 4.37147 213.416 4.13804C213.459 3.91732 213.551 3.66119 213.7 3.36834C213.843 3.08549 214.032 2.82351 214.267 2.58231C214.498 2.34648 214.828 2.10356 215.266 1.8566L215.266 1.8565C215.697 1.61317 216.202 1.40654 216.783 1.23696C217.362 1.06846 218.083 0.929099 218.95 0.820982L218.95 0.82098C219.812 0.713352 220.776 0.65918 221.841 0.65918H222.565C223.619 0.65918 224.577 0.71334 225.44 0.82098C226.306 0.929123 227.028 1.06802 227.606 1.23693C228.187 1.40647 228.689 1.61294 229.114 1.85584C229.547 2.10335 229.878 2.34703 230.115 2.58425C230.356 2.82506 230.546 3.08635 230.689 3.3682C230.838 3.66172 230.93 3.91738 230.972 4.13804C231.017 4.37176 231.041 4.61863 231.041 4.87804V5.24123C231.041 5.50142 231.018 5.74762 230.973 5.98079Z" stroke="white" stroke-width="0.5"/>
<path d="M237.142 6.16514V9.50935H233.119V0.65918H245.61V2.44649H237.392H237.142V2.69649V3.86527V4.11527H237.392H245.434V5.91514H237.392H237.142V6.16514Z" stroke="white" stroke-width="0.5"/>
<path d="M238.607 21.3787H234.535V14.8301V14.5801H234.285H229.367V12.5291H243.775V14.5801H238.857H238.607V14.8301V21.3787Z" stroke="white" stroke-width="0.5"/>
<path d="M249.973 18.0722V21.3787H245.9V12.5286H249.973V15.584V15.834H250.223H257.709H257.959V15.584V12.5286H262.015V21.3787H257.959V18.0722V17.8222H257.709H250.223H249.973V18.0722Z" stroke="white" stroke-width="0.5"/>
<path d="M268.753 19.5412H277.373V21.3787H264.495V12.5286H277.245V14.3159H268.753H268.503V14.5659V15.7347V15.9847H268.753H277.067V17.7594H268.753H268.503V18.0094V19.2912V19.5412H268.753Z" stroke="white" stroke-width="0.5"/>
<path d="M12.8227 29.1534L14.6581 33.035C14.9529 33.6575 15.5221 34.0893 16.1806 34.1898L20.2846 34.8118C21.9432 35.0635 22.6055 37.1904 21.4055 38.4114L18.4358 41.4323C17.9591 41.9172 17.7421 42.6156 17.8541 43.3004L18.5552 47.5664C18.8384 49.2901 17.1044 50.6047 15.6211 49.7909L11.9503 47.777C11.3612 47.4539 10.6578 47.4539 10.0682 47.777L6.3974 49.7909C4.91371 50.6052 3.18013 49.2901 3.46335 47.5664L4.16447 43.3004C4.27692 42.616 4.05942 41.9177 3.58275 41.4323L0.613067 38.4114C-0.587393 37.1904 0.0748501 35.063 1.73393 34.8118L5.83789 34.1898C6.49643 34.0898 7.06566 33.6585 7.36045 33.035L9.19585 29.1534C9.93723 27.5852 12.0808 27.5852 12.8222 29.1534H12.8227Z" fill="white"/>
<path d="M22.666 3.01355L45.2443 40.956C46.9039 43.745 46.0829 47.4097 43.4108 49.1415C40.7387 50.8734 37.2266 50.0166 35.5671 47.2276L12.9888 9.28513C11.3292 6.4961 12.1502 2.83148 14.8223 1.09962C17.4944 -0.632235 21.0065 0.224517 22.666 3.01355Z" fill="white"/>
</svg>
